<?xml version="1.0" encoding="UTF-8" standalone="no"?>
<!-- Created with Inkscape (http://www.inkscape.org/) -->

<svg
   xmlns:dc="http://purl.org/dc/elements/1.1/"
   xmlns:cc="http://creativecommons.org/ns#"
   xmlns:rdf="http://www.w3.org/1999/02/22-rdf-syntax-ns#"
   xmlns:svg="http://www.w3.org/2000/svg"
   xmlns="http://www.w3.org/2000/svg"
   xmlns:sodipodi="http://sodipodi.sourceforge.net/DTD/sodipodi-0.dtd"
   xmlns:inkscape="http://www.inkscape.org/namespaces/inkscape"
   version="1.1"
   id="svg2"
   width="105.28"
   height="101.12"
   viewBox="0 0 105.28 101.12"
   sodipodi:docname="hashemi3.svg"
   inkscape:version="0.92.4 (5da689c313, 2019-01-14)">
  <metadata
     id="metadata8">
    <rdf:RDF>
      <cc:Work
         rdf:about="">
        <dc:format>image/svg+xml</dc:format>
        <dc:type
           rdf:resource="http://purl.org/dc/dcmitype/StillImage" />
        <dc:title></dc:title>
      </cc:Work>
    </rdf:RDF>
  </metadata>
  <defs
     id="defs6" />
  <sodipodi:namedview
     pagecolor="#ffffff"
     bordercolor="#666666"
     borderopacity="1"
     objecttolerance="10"
     gridtolerance="10"
     guidetolerance="10"
     inkscape:pageopacity="0"
     inkscape:pageshadow="2"
     inkscape:window-width="1920"
     inkscape:window-height="1016"
     id="namedview4"
     showgrid="false"
     inkscape:zoom="8"
     inkscape:cx="73.923346"
     inkscape:cy="47.119595"
     inkscape:window-x="0"
     inkscape:window-y="27"
     inkscape:window-maximized="1"
     inkscape:current-layer="g12" />
  <g
     id="g12"
     transform="matrix(1.3805896,0,0,1.3805896,-20.942498,-18.297696)">
    <path
       style="fill:#333333;fill-opacity:1;stroke-width:0.31999999"
       d="m 60.664634,83.225712 c -0.492311,-0.513859 -0.818618,-1.125859 -0.725133,-1.36 0.135043,-0.338227 0.175165,-0.332938 0.195235,0.02573 0.01389,0.248301 0.4832,0.860301 1.042899,1.36 0.559699,0.499699 0.87464,0.908544 0.699869,0.908544 -0.174771,0 -0.720563,-0.420429 -1.21287,-0.934288 z M 55.2,80.917027 c -0.899875,-0.209984 -1.707642,-0.756601 -2.72,-1.840637 -1.362669,-1.459145 -3.244835,-3.144124 -5.31464,-4.757846 -0.508947,-0.396803 -1.378147,-1.080803 -1.931555,-1.52 C 44.6804,72.359344 43.974346,72 43.664797,72 c -0.309549,0 -1.477146,-0.432 -2.594663,-0.96 -1.117513,-0.528 -2.103459,-0.96 -2.190988,-0.96 -0.08753,0 -0.159146,0.312355 -0.159146,0.694125 0,0.381769 -0.432,1.45959 -0.96,2.395152 -0.528,0.935565 -0.96,1.98271 -0.96,2.326989 0,0.344281 -0.117946,0.698857 -0.262099,0.787948 -0.419095,0.259015 -0.02365,-1.834096 0.448873,-2.375926 0.633376,-0.726272 1.416509,-2.741078 1.390733,-3.57801 C 38.356163,69.637267 38.340982,69.632659 38.08,70.24 37.827037,70.828675 37.802134,70.815843 37.769485,70.08 37.749965,69.64 37.307843,68.78144 36.786995,68.172086 36.031312,67.287994 35.84,66.762579 35.84,65.57127 c 0,-1.003004 0.174707,-1.637024 0.53239,-1.932089 0.481268,-0.397008 0.496631,-0.372061 0.16,0.259782 -0.64312,1.207114 -0.44768,2.925027 0.469584,4.127626 0.927328,1.215785 5.499306,3.653411 6.852295,3.653411 0.445219,0 0.966723,0.280128 1.191469,0.64 0.219827,0.352 0.561011,0.64 0.758188,0.64 0.197178,0 0.885117,0.468 1.528756,1.04 1.083491,0.962899 3.643744,3.070048 4.179708,3.44 0.127492,0.088 0.388749,0.458451 0.58058,0.823226 1.171113,2.226947 6.070035,3.456931 8.698422,2.183932 C 61.48088,80.113219 62.13455,79.552 62.243994,79.2 c 0.174374,-0.560842 0.620896,-3.648662 0.916547,-6.338211 0.0543,-0.494013 0.345597,-1.142013 0.647315,-1.44 0.51744,-0.511034 0.523517,-0.493005 0.10703,0.317609 -0.242854,0.472669 -0.401132,1.372669 -0.351728,2 0.04941,0.627332 -0.04809,1.140602 -0.216665,1.140602 -0.16857,0 -0.306493,0.573933 -0.306493,1.275408 0,0.701475 -0.164813,1.889475 -0.366253,2.64 C 62.378598,79.895075 62.078682,80.26872 61.128912,80.72 59.847578,81.328822 57.324102,81.412678 55.2,80.917027 Z m 2.24,-7.982589 C 55.210227,71.8888 54.4,71.295917 54.4,70.70992 c 0,-0.230739 -0.252,-0.703264 -0.56,-1.050051 -0.545002,-0.613642 -0.540717,-0.618682 0.16,-0.188224 0.396,0.243267 0.72,0.629686 0.72,0.85871 0,1.337053 2.552794,2.477952 4.859747,2.171923 2.096458,-0.278105 2.696727,-0.60654 2.949539,-1.613836 0.1116,-0.444644 0.333127,-0.808442 0.492285,-0.808442 0.438999,0 -0.593965,1.884211 -1.205881,2.199632 -0.294631,0.151872 -1.101728,0.378493 -1.793549,0.503603 -0.894947,0.161843 -1.128435,0.307466 -0.809267,0.50472 0.246726,0.152487 0.380761,0.337907 0.297859,0.412051 C 59.42783,73.77415 58.496,73.429645 57.44,72.934438 Z m 7.126339,-3.148281 c -0.402915,-0.575239 -0.547552,-0.586503 -2.300009,-0.17913 -1.421799,0.330506 -2.531197,0.361392 -4.628196,0.128842 -3.430528,-0.380429 -3.562742,-0.429978 -3.537849,-1.325827 L 54.120573,67.68 54.409978,68.4 c 0.159174,0.396 0.546044,0.721965 0.859718,0.724368 0.31367,0.0026 0.863101,0.08304 1.220957,0.179187 0.558342,0.150016 0.649139,0.02662 0.64,-0.869705 -0.0086,-0.846103 -0.162618,-1.080544 -0.810647,-1.234135 -0.904896,-0.214473 -2.40614,0.417776 -2.678739,1.128147 -0.234061,0.609952 -3.383971,0.6761 -3.435168,0.07214 -0.0995,-1.173722 0.121111,-2.430726 0.583888,-3.326944 0.512615,-0.99273 2.149427,-2.028397 3.220877,-2.037955 1.120435,-0.01 1.355437,-0.419405 0.967078,-1.684794 -0.312521,-1.018285 -0.281939,-1.273389 0.219008,-1.826928 0.964688,-1.065971 4.431255,-0.608416 5.243431,0.692083 0.359709,0.575988 0.314419,0.570276 -0.550915,-0.06949 -1.156032,-0.854691 -3.671709,-1.20505 -4.38745,-0.61104 -0.995744,0.826397 0.493251,3.533837 1.91377,3.479808 0.365321,-0.01389 0.48422,-0.09789 0.26422,-0.186666 -0.54382,-0.219436 -0.505289,-1.222323 0.06516,-1.69575 0.368128,-0.30552 0.652832,-0.275178 1.364915,0.145459 1.087568,0.642445 2.437827,2.608752 2.131635,3.104183 -0.135136,0.218652 -0.07521,0.267072 0.154688,0.124988 0.206403,-0.127564 0.859706,0.06746 1.451782,0.433383 0.866541,0.535552 1.317898,0.615305 2.314164,0.408912 l 1.155364,-1.079356 0.249138,-5.083467 c 0,0 0.448044,-4.617578 0.166838,-5.906428 C 66.452484,51.99115 65.846848,51.480416 65.846848,51.480416 65.359078,50.490643 64.96,49.511734 64.96,49.305066 c 0,-0.206669 0.396,-0.724308 0.88,-1.150301 0.783184,-0.689328 1.183741,-0.775651 3.640819,-0.784653 2.073056,-0.0076 2.860055,0.109462 3.159181,0.469888 0.57527,0.693158 1.175856,0.590077 1.398307,-0.24 0.583709,-2.178099 -0.174848,-6.012784 -1.410649,-7.131168 -0.588964,-0.533005 -0.683597,-0.503584 -2.300941,0.715395 -0.927693,0.699197 -2.001251,1.438778 -2.38568,1.64352 -0.81497,0.434035 -4.581037,0.506595 -4.581037,0.08826 0,-0.156198 0.943261,-0.684886 2.096138,-1.174864 1.524441,-0.647897 2.426179,-1.29047 3.306243,-2.356006 1.459104,-1.766608 1.906435,-2.756762 1.106825,-2.449923 -0.295929,0.113558 -1.125564,0.339571 -1.843628,0.502249 C 67.30751,37.600141 65.856,38.023722 64.8,38.378752 62.333216,39.208093 56.539024,39.28031 53.079254,38.524835 51.018938,38.074944 44.422416,35.258966 45.28,35.195424 c 0.176,-0.01302 -0.236762,-0.317386 -0.917248,-0.67632 -0.684544,-0.361078 -1.359418,-0.530438 -1.51073,-0.379126 -0.151315,0.151315 -0.0753,0.932009 0.17016,1.747616 0.244007,0.810771 0.545642,2.777932 0.670301,4.371472 0.207741,2.655526 0.16736,2.993286 -0.483808,4.046896 -0.841097,1.360928 -1.86768,1.949702 -3.941792,2.260736 -1.827661,0.274073 -2.340835,0.955222 -1.875184,2.488972 0.171043,0.563383 0.398026,1.639079 0.504403,2.390442 0.17762,1.254531 0.125984,1.391747 -0.632176,1.68 C 36.809853,53.298749 36.109098,53.44 35.706698,53.44 c -0.688096,0 -0.742743,-0.15735 -0.918234,-2.644112 -0.10263,-1.454259 -0.336454,-3.038259 -0.51961,-3.52 C 33.976214,46.506189 33.77,46.40169 32.56792,46.413936 c -2.170882,0.02211 -4.1742,0.513504 -4.628956,1.135418 -0.994939,1.360662 -0.191369,7.700217 1.157069,9.12839 0.891481,0.944195 1.691252,2.497824 2.397636,4.657629 0.738517,2.258048 1.076577,2.489299 2.973614,2.034112 2.656531,-0.637427 3.173261,-0.690787 1.852717,-0.191319 -0.704,0.266272 -1.859069,0.57153 -2.566822,0.678343 -1.239258,0.187033 -1.313181,0.147309 -2,-1.074717 C 31.36093,62.083878 31.04,61.344566 31.04,61.138874 c 0,-0.680772 -1.208387,-3.040759 -2.188378,-4.273917 -0.533994,-0.671943 -1.118177,-1.929088 -1.308229,-2.815274 -0.420046,-1.958608 -0.442332,-6.03775 -0.03649,-6.679446 0.204279,-0.322999 0.06117,-0.922858 -0.458068,-1.92 -1.628326,-3.127056 -1.877181,-4.281165 -1.677794,-7.781047 0.102435,-1.798054 0.330962,-3.91719 0.507838,-4.70919 0.176875,-0.792 0.467438,-2.270645 0.645694,-3.285878 0.189348,-1.078398 0.708289,-2.408894 1.248116,-3.2 0.508207,-0.744767 1.332502,-1.974294 1.831768,-2.732283 0.499265,-0.757988 1.350508,-1.690805 1.89165,-2.072926 0.541142,-0.382121 1.631894,-1.320222 2.423894,-2.084669 2.576314,-2.486688 5.092131,-3.306394 12.060931,-3.92971 3.265459,-0.292074 3.956147,-0.250311 7.84,0.474063 7.244973,1.351252 10.912355,3.104257 14.819069,7.083498 2.573341,2.621115 4.96,6.498173 4.96,8.057376 0,0.374784 0.36049,1.109844 0.801091,1.633467 0.440599,0.523622 1.085437,1.578672 1.43297,2.34455 0.882441,1.944675 0.885379,6.04135 0.006,8.272512 -0.352,0.89303 -0.64,1.906883 -0.64,2.253005 0,0.346125 -0.285562,1.162109 -0.634579,1.813302 -0.632772,1.180615 -0.632772,1.185911 0,1.859463 0.749366,0.797664 0.839296,2.33576 0.151987,2.599504 -0.265427,0.101852 -0.994768,-0.05785 -1.620759,-0.354906 -0.625993,-0.297053 -2.225824,-0.761901 -3.555184,-1.032995 -2.036096,-0.415219 -3.624289,-0.651168 -3.857905,-0.282397 -0.214704,0.338915 0.0038,0.456797 0,0 -0.0044,-0.526486 1.057365,-0.491546 2.55644,-0.296916 2.134413,0.277114 4.972304,1.073517 5.212969,1.462925 0.101642,0.164454 0.464304,0.299011 0.805917,0.299011 1.131936,0 0.766359,-1.487466 -0.710973,-2.892819 C 72.216022,47.680182 72.215446,47.68 69.56576,47.68 c -2.335667,0 -2.755958,0.09108 -3.542582,0.767706 l -0.892512,0.767708 0.552956,1.159562 c 0.60545,1.269645 1.189639,1.582557 3.596378,1.926346 2.325296,0.332153 3.332394,1.61903 3.869732,2.992879 -0.265093,0.985208 -0.909263,1.612427 -2.079329,1.662001 -0.45672,-0.0022 -1.576272,-0.202381 -2.487888,-0.445098 l -1.657485,-0.441296 -0.105449,4.845094 c -0.02541,1.167466 0.08311,2.58041 -0.304766,3.501471 -0.328796,0.780777 -1.168681,1.130897 -1.137931,1.484038 0.03852,0.442418 0.389729,0.251858 0.900814,0.237849 0.105046,-0.0029 1.29294,-0.994501 2.248925,-2.021358 1.353759,-1.454119 1.055155,-5.008735 0.726058,-6.352219 -0.174736,-0.713331 -0.743193,-0.900959 0.202186,-0.229046 0.06162,0.04379 0.517523,3.36017 -0.0055,5.402409 -0.600618,2.345183 -2.971837,2.972256 -2.885521,3.345419 0.287794,1.244188 1.439536,2.460884 0.778019,3.405332 -0.631373,0.901408 -2.174429,0.955536 -2.775517,0.09736 z M 59.685027,68.502883 C 59.504147,67.679344 59.317635,67.52 58.534573,67.52 57.713971,67.52 57.6,67.634602 57.6,68.459725 c 0,0.825741 0.126147,0.952221 1.04,1.042733 1.327578,0.131491 1.299373,0.158467 1.045027,-0.999575 z m 2.399872,0.340797 c 0.004,-0.427094 0.05706,-0.441306 0.287706,-0.07705 0.168057,0.265415 0.509245,0.359735 0.840899,0.232468 0.827648,-0.317597 0.407654,-0.538861 -1.519165,-0.800336 l -1.725203,-0.234116 0.123024,0.838205 c 0.106282,0.724135 0.249914,0.819584 1.05543,0.701357 0.591402,-0.0868 0.934202,-0.328371 0.937309,-0.660528 z M 60.48,63.068445 C 60.48,62.708675 58.625398,61.12 58.205405,61.12 c -0.507085,0 -0.702877,0.936976 -0.297789,1.425078 0.20857,0.251312 0.764682,0.515904 1.235802,0.587981 0.47112,0.07208 0.964582,0.152624 1.096582,0.178995 0.132,0.02637 0.24,-0.08325 0.24,-0.243609 z M 72.222781,56.24 c 0.199694,-0.265247 0.64361,-0.421684 0.678658,-0.767715 0.06478,-0.6396 -0.470482,-1.481644 -0.905762,-1.714599 -0.318781,-0.200124 -1.677442,-1.234196 -1.146682,-0.09511 0.264924,0.585106 -0.263577,2.48112 -1.059954,2.705913 0,0.461325 2.07638,0.346173 2.43374,-0.128493 z m -2.312823,-3.488 c -0.453873,-0.220373 -0.828788,-0.246674 -1.17798,-0.08 -0.213415,-0.0176 -0.520944,0.431469 -0.683405,0.997926 -0.22744,0.79304 -0.173296,1.21625 0.235401,1.84 1.765424,2.161857 3.421644,-1.900415 1.625984,-2.757926 z m -2.233392,1.433507 c -8.54e-4,-0.448488 0.704551,-1.365263 0.652934,-1.699822 -0.06324,-0.409887 -0.893481,-0.193677 -0.996473,-0.228008 -0.106965,-0.03565 -0.477452,-0.409747 -0.530229,-0.128747 -0.06863,0.365416 0.133228,0.966282 0.212621,1.616728 0.110845,0.908115 0.148687,1.866843 0.343468,2.009443 0.176615,0.129305 1.019422,0.373077 1.019422,0.375765 0,0.0026 -0.699902,-0.947407 -0.701702,-1.945359 z M 36.775939,52.916813 c 1.115306,-0.223063 1.122755,-0.313808 0.291562,-3.551696 -0.473498,-1.844493 0.15112,-2.817395 2.010483,-3.131533 2.191869,-0.370317 3.140662,-0.923222 3.847574,-2.242163 0.581076,-1.08416 0.637776,-1.562003 0.4461,-3.759344 C 43.250886,38.847555 42.939283,36.99823 42.679206,36.122461 42.239197,34.640781 42.309098,33.28 42.825222,33.28 c 0.122154,0 0.940452,0.490131 1.818439,1.089178 4.406477,3.006524 8.908259,4.350822 14.570032,4.350822 2.556976,0 3.863517,-0.15737 5.24087,-0.631248 2.425475,-0.834486 5.950208,-1.71065 6.135677,-1.525178 0.631747,0.631748 -3.385939,5.344244 -4.576346,5.367767 C 65.698253,41.937581 65.08,42.148474 64.64,42.4 c -0.764592,0.437082 -0.719312,0.457824 1.023053,0.468659 1.699997,0.01059 1.965744,-0.09666 3.936947,-1.588659 1.16264,-0.88 2.225165,-1.6 2.361165,-1.6 0.458387,0 1.573811,1.431075 2.088163,2.679078 0.28087,0.681495 0.526448,1.977495 0.545734,2.88 l 0.03506,1.640922 0.26239,-1.28 c 0.144317,-0.704 0.488538,-1.910106 0.764941,-2.680234 1.140637,-3.178118 0.412131,-7.683209 -1.592147,-9.845862 C 73.633386,32.607856 73.28,31.892117 73.28,31.483371 c 0,-0.408746 -0.589933,-1.897462 -1.31096,-3.308257 -1.636112,-3.201293 -5.030256,-6.772448 -7.84721,-8.256462 -2.448374,-1.289838 -6.509603,-2.956099 -7.20854,-2.957555 -0.289693,-6.08e-4 -2.048167,-0.298332 -3.907722,-0.661619 -2.995216,-0.585153 -3.774928,-0.622288 -6.833286,-0.325446 -4.180157,0.405724 -7.512868,1.036254 -9.149674,1.731068 -0.669565,0.284227 -2.006867,1.270253 -2.971782,2.191171 -0.964916,0.920917 -2.098523,1.900142 -2.519126,2.176054 -0.953865,0.625727 -1.609087,1.488511 -3.286553,4.327675 -1.005292,1.701487 -1.411727,2.816978 -1.690608,4.64 -0.20193,1.32 -0.488796,3.12 -0.637481,4 -0.493094,2.918406 -0.364257,5.95497 0.330182,7.782061 1.230073,3.236368 1.211689,3.223885 4.900817,3.327072 l 3.248692,0.09087 0.370905,1.6 c 0.204,0.88 0.384733,2.428 0.401626,3.44 0.0169,1.012 0.15672,1.84 0.31072,1.84 0.154,0 0.737174,-0.09143 1.295939,-0.203187 z m -5.596442,3.510822 c -0.675921,-0.729328 -0.782747,-1.133491 -0.740084,-2.8 0.02742,-1.0712 -0.05998,-2.348681 -0.194225,-2.838848 -0.180022,-0.657305 -0.09473,-1.056246 0.32496,-1.52 0.683733,-0.755517 1.105125,-0.786889 1.92869,-0.143587 0.572295,0.447027 0.549172,0.45432 -0.293894,0.09266 -0.803651,-0.344745 -0.970961,-0.31616 -1.374268,0.2348 -0.304875,0.416493 -0.37614,0.896215 -0.212038,1.427338 0.135948,0.44 0.21233,1.652547 0.169737,2.69455 -0.06432,1.573559 0.04121,2.020855 0.622873,2.64 0.894368,0.952013 1.782237,0.963524 1.962918,0.02544 0.118903,-0.617328 0.144893,-0.594508 0.182256,0.16 0.0367,0.741136 -0.08507,0.88 -0.771702,0.88 -0.471942,0 -1.147946,-0.358953 -1.605223,-0.852364 z M 49.58991,55.058867 C 48.584144,54.753293 47.36,54.003926 47.36,53.693818 c 0,-0.127728 0.468,0.04364 1.04,0.380825 0.572,0.337181 1.688,0.687552 2.48,0.778605 0.792,0.09105 1.188099,0.08778 0.880218,-0.0073 -0.537581,-0.165968 -0.757194,-0.700259 -0.950634,-2.312762 L 50.72,51.786435 49.505789,52.613222 c -1.299712,0.885005 -1.663655,1.021104 -1.342963,0.502212 0.450496,-0.728916 2.724505,-1.556756 4.8143,-1.752621 1.98129,-0.185693 2.40546,-0.118835 3.902874,0.615187 0.924,0.452934 1.68,1.016502 1.68,1.252371 0,0.235872 -0.54,0.688717 -1.2,1.00633 -0.66,0.317609 -1.450045,0.700285 -1.755658,0.85039 -0.676492,0.332266 -4.893052,0.312483 -6.014432,-0.02822 z m 5.915376,-0.841321 c 0.499383,-0.762157 0.500692,-0.885328 0.01782,-1.68 L 55.002016,51.68 l 0.6664,0.764602 c 0.405926,0.46574 0.592538,0.997321 0.477427,1.36 C 56.025533,54.183664 56.113242,54.4 56.387235,54.4 56.914026,54.4 58.24,53.501485 58.24,53.144518 58.24,52.571261 55.070877,51.577904 53.510224,51.661981 51.52057,51.769165 51.2,51.972685 51.2,53.128666 c 0,1.81888 3.282934,2.64919 4.305286,1.08888 z M 55.84,50.117754 C 55.312,49.888294 53.905693,49.51719 52.714874,49.293078 50.706614,48.91512 50.435696,48.934662 48.975552,49.5628 46.51833,50.619869 43.781706,50.346966 44.77976,49.14439 45.009994,48.866976 45.396733,48.64 45.639181,48.64 45.881632,48.64 46.08,48.348912 46.08,47.993139 c 0,-0.771654 0.675562,-1.069209 3.637334,-1.602096 2.541248,-0.457225 4.459274,-0.152371 7.840228,1.246135 2.279142,0.942748 2.620044,1.379376 1.791651,2.294742 -0.657437,0.726458 -2.090557,0.802352 -3.509213,0.185834 z m 3.305197,-0.548916 c 0.230531,-0.369139 0.373171,-0.696009 0.316976,-0.726384 -1.333447,-0.720707 -3.508355,-1.544419 -5.19417,-1.967203 C 52.437296,46.416128 51.811542,46.393754 49.982154,46.722013 47.248358,47.212554 46.4,47.548819 46.4,48.141882 c 0,0.26158 -0.288,0.629734 -0.64,0.818118 -1.916989,1.025942 0.953082,1.328054 3.04,0.32 0.704,-0.340058 1.568054,-0.623171 1.920118,-0.629142 0.991095,-0.0168 4.820247,0.837692 5.485085,1.224035 1.011968,0.58807 2.476839,0.435574 2.939994,-0.306055 z"
       id="path14"
       inkscape:connector-curvature="0"
       sodipodi:nodetypes="cscssccccccscsscsccsccsscccscscccccccscssssccscssscssscccccccccccccccccsccccccccccsccczcsccccsccscsccssccscccccccsccccssscccsssccsccsssssssscccsccccsccccscsscssccccssssssssscccssccccsscsccsssccscscccccccccccssscscccccsscssssccccssccccccssscssccsssssscccscccccccccsscccscccscccccscccscsccsccccsscsscsssssssccsssssccccss" />
    <path
       style="fill:#6c5d53;stroke-width:0.07574432"
       d="m 52.573007,57.595051 c -1.235767,-0.206458 -2.309391,-0.958676 -2.676115,-1.874977 -0.1241,-0.310077 -0.126938,-1.258954 -0.0049,-1.628819 0.184121,-0.55789 0.745185,-0.819659 2.048773,-0.955872 1.165399,-0.121774 2.125082,-0.08612 3.002303,0.111543 0.108261,0.02439 0.314587,0.294478 0.622839,0.815307 0.731492,1.235941 0.751428,1.393449 0.275533,2.176856 -0.492234,0.810305 -1.079169,1.207322 -2.007523,1.357937 -0.556404,0.09027 -0.710238,0.09003 -1.260938,-0.002 z"
       id="path102"
       inkscape:connector-curvature="0"
       transform="matrix(0.72432821,0,0,0.72432821,15.169242,13.253537)" />
    <path
       style="fill:#6c5d53;stroke-width:0.07574432"
       d="m 74.371472,59.098319 c -0.387964,-0.127596 -1.034614,-0.763466 -1.275727,-1.25446 -0.28911,-0.588735 -0.290821,-1.392006 -0.0047,-2.19542 0.353958,-0.993812 0.72334,-1.303876 1.55165,-1.302477 1.364352,0.0023 2.207501,1.241599 1.887821,2.774795 -0.294991,1.414782 -1.239586,2.279968 -2.15907,1.977562 z"
       id="path104"
       inkscape:connector-curvature="0"
       transform="matrix(0.72432821,0,0,0.72432821,15.169242,13.253537)" />
    <path
       style="fill:#6c5d53;stroke-width:0.07574432"
       d="m 52.281642,57.501576 c -0.646114,-0.165803 -1.232548,-0.480428 -1.674431,-0.898343 -0.633956,-0.599569 -0.744877,-0.857995 -0.747341,-1.741182 -0.0018,-0.627311 0.02081,-0.763776 0.156564,-0.946804 0.215525,-0.290589 0.638269,-0.517351 1.194902,-0.640952 0.6822,-0.151483 3.338527,-0.143294 3.645613,0.01124 0.394165,0.198353 1.249782,1.647093 1.249782,2.116145 0,0.325864 -0.325695,0.938439 -0.727132,1.367608 -0.503709,0.538505 -1.092565,0.775867 -1.998895,0.805735 -0.420568,0.01386 -0.877946,-0.01671 -1.099062,-0.07345 z"
       id="path106"
       inkscape:connector-curvature="0"
       transform="matrix(0.72432821,0,0,0.72432821,15.169242,13.253537)" />
    <path
       style="fill:#6c5d53;stroke-width:0.07574432"
       d="M 52.130154,57.465542 C 51.50083,57.2782 50.963522,56.969937 50.541158,56.553905 49.966522,55.987886 49.857496,55.71934 49.859722,54.875433 c 0.0021,-0.793723 0.05883,-0.954601 0.438932,-1.244516 0.474156,-0.361656 1.060468,-0.456988 2.819439,-0.458427 1.803708,-0.0015 1.816532,0.002 2.22537,0.596185 0.394518,0.573412 0.76251,1.359018 0.762898,1.628672 9.07e-4,0.629832 -0.759909,1.594855 -1.530311,1.941054 -0.623741,0.280294 -1.737022,0.338164 -2.445896,0.127141 z"
       id="path108"
       inkscape:connector-curvature="0"
       transform="matrix(0.72432821,0,0,0.72432821,15.169242,13.253537)" />
    <path
       style="fill:#6c5d53;stroke-width:0.07574432"
       d="m 74.226683,58.995696 c -0.310485,-0.15841 -0.931067,-0.830821 -1.122362,-1.216098 -0.215876,-0.434783 -0.199078,-1.577804 0.03172,-2.158631 0.370191,-0.93161 0.707292,-1.210058 1.468979,-1.213388 0.278274,-0.0012 0.609758,0.0519 0.798811,0.12799 0.442709,0.178193 0.899534,0.715682 1.050945,1.236515 0.306883,1.055642 -0.178343,2.54542 -1.016611,3.121277 -0.325341,0.223497 -0.881869,0.270507 -1.211486,0.102335 z"
       id="path110"
       inkscape:connector-curvature="0"
       transform="matrix(0.72432821,0,0,0.72432821,15.169242,13.253537)" />
    <path
       style="fill:#280b0b;stroke-width:0.06104616"
       d="m 68.922294,56.257475 c -0.250236,-0.127671 -0.750393,-0.669601 -0.904567,-0.980116 -0.173985,-0.350412 -0.160448,-1.271631 0.02557,-1.739748 0.298677,-0.751642 0.578973,-0.982976 1.189187,-0.981468 0.500223,0.0012 0.842942,0.147855 1.143354,0.48914 0.581347,0.660444 0.55211,1.866708 -0.06602,2.723808 -0.367279,0.509271 -0.946788,0.713248 -1.387524,0.488384 z"
       id="path112"
       inkscape:connector-curvature="0" />
    <path
       style="fill:#1c2422;stroke-width:0.05903661"
       d="m 52.930666,55.016421 c -0.701214,-0.196618 -1.445265,-0.747038 -1.698748,-1.256667 -0.130509,-0.262389 -0.15243,-1.256181 -0.03243,-1.470268 0.120842,-0.21559 0.438912,-0.419734 0.811783,-0.521016 0.412354,-0.112007 1.986081,-0.183387 2.599303,-0.117898 0.370497,0.03956 0.428834,0.0645 0.61589,0.263293 0.299688,0.318483 0.719447,1.094916 0.753033,1.392895 0.05815,0.515912 -0.520057,1.297761 -1.178599,1.593693 -0.311726,0.140082 -0.466322,0.169984 -0.961795,0.186031 -0.400055,0.01296 -0.692898,-0.0096 -0.908436,-0.07006 z"
       id="path114"
       inkscape:connector-curvature="0" />
    <path
       style="fill:#483737;stroke-width:0.0625"
       d="m 50.595613,45.835757 c -1.941341,0.07464 -3.857331,0.483289 -5.729642,0.981288 -0.595232,0.214576 -1.307828,0.360186 -1.70737,0.891636 -0.164069,0.413582 -0.170223,0.926062 -0.580688,1.201905 -0.398139,0.400108 -1.071994,0.572255 -1.286499,1.129394 -0.03938,0.48052 0.58687,0.561355 0.937866,0.601685 1.555595,0.13486 3.101915,-0.282873 4.50289,-0.936026 1.027122,-0.459423 2.109237,-0.858516 3.239149,-0.671355 2.033793,0.295809 4.045977,0.756476 6.013249,1.357939 0.928084,0.371701 1.887931,0.894209 2.927508,0.723211 0.859281,-0.02925 1.709463,-0.484384 2.083073,-1.281142 0.135668,-0.242541 0.406193,-0.645815 0.04785,-0.836548 C 58.624893,47.7369 56.02544,46.833396 53.380667,46.180076 52.468669,45.959843 51.53703,45.80383 50.595613,45.835757 Z"
       id="path4672"
       inkscape:connector-curvature="0"
       transform="matrix(0.72432821,0,0,0.72432821,15.169242,13.253537)" />
    <path
       style="fill:#483737;stroke-width:0.125"
       d="m 74.986608,47.425818 c -1.707348,0.08064 -3.683422,-0.07356 -5.004395,1.237793 -0.373813,0.443619 -1.384485,0.78058 -0.851839,1.463147 0.143093,0.390097 0.39587,1.195423 0.954622,0.787341 1.556985,-0.426839 3.181032,0.09277 4.742059,0.284972 1.886972,0.410102 3.867729,0.717796 5.557014,1.702577 0.50382,0.546372 1.706386,0.669336 2.067382,-0.07739 0.32225,-1.460092 -0.96803,-2.620715 -1.845214,-3.597412 -0.766686,-0.841066 -1.695507,-1.645001 -2.896973,-1.675293 -0.901743,-0.120225 -1.81411,-0.138246 -2.722656,-0.125732 z"
       id="path4692"
       inkscape:connector-curvature="0"
       transform="matrix(0.72432821,0,0,0.72432821,15.169242,13.253537)" />
  </g>
  <path
     style="fill:#ccffaa"
     id="path20"
     d="m 38.316977,17.47161 c -0.717951,-0.06856 -0.192378,0.01031 -0.991798,-0.205214 -0.232149,-0.06259 -0.469981,-0.103983 -0.700085,-0.173716 -0.215249,-0.06523 -0.419493,-0.163353 -0.634117,-0.230612 -0.347969,-0.109047 -0.704888,-0.187611 -1.054203,-0.292266 0.450904,0.09668 -0.397162,-0.168917 -0.338589,-0.06969 0.02356,0.03991 0.08862,0.03062 0.126974,0.05663 0.05994,0.04067 0.109482,0.09489 0.164989,0.141437 0.06342,0.05318 0.149102,0.0868 0.191782,0.157715 0.04428,0.07357 0.03643,0.167828 0.05465,0.251742 -0.06125,0.108435 -0.104835,0.228955 -0.183739,0.325306 -0.460923,0.562835 -1.38063,0.884174 -1.995786,1.235986 -0.944139,0.539959 -0.891288,0.553284 -1.733335,1.235376 -0.177383,0.233506 -0.41784,0.430476 -0.53215,0.70052 -0.08592,0.202969 -0.09243,0.444829 -0.04366,0.659771 0.249256,1.098575 1.874594,1.632645 2.777852,2.00709 0.213417,0.08291 0.433054,0.151306 0.640252,0.24872 0.113266,0.05325 0.247887,0.09693 0.316953,0.201311 0.03791,0.05729 -0.0075,0.146923 -0.05175,0.199491 -0.08553,0.101659 -0.205428,0.169737 -0.318108,0.240116 -0.426367,0.266304 -0.665081,0.355883 -1.118174,0.559914 0,0 0.07378,-0.05846 0.07378,-0.05846 v 0 c 0.36606,-0.157762 1.022605,-0.404166 1.29646,-0.710148 0.05385,-0.06017 0.135461,-0.147197 0.100976,-0.220219 -0.145642,-0.308401 -0.795576,-0.202538 -0.89905,-0.488483 -0.644068,-0.225064 -1.216584,-0.388174 -1.806713,-0.748211 -0.441214,-0.269184 -0.95724,-0.64307 -1.067881,-1.20379 -0.126942,-0.643329 0.259799,-0.914416 0.609795,-1.378993 0.886361,-0.732351 0.749079,-0.679492 1.799973,-1.280321 0.591942,-0.338433 1.490632,-0.660605 1.945113,-1.197192 0.06865,-0.08106 0.083,-0.195561 0.124506,-0.293342 -0.01272,-0.08546 0.0017,-0.179732 -0.03816,-0.256397 -0.08445,-0.162423 -0.378497,-0.208154 -0.398797,-0.41261 -0.0014,-0.01404 0.02708,0.008 0.04062,0.01193 0.102341,0.01785 0.204681,0.0357 0.307021,0.05356 0.551948,0.19431 1.105611,0.381642 1.670799,0.53479 0.231997,0.06286 0.467503,0.112165 0.699865,0.173664 0.185708,0.04915 0.366982,0.115005 0.554156,0.158236 0.135353,0.03126 0.274449,0.04322 0.411673,0.06484 0,0 -0.0021,0.0015 -0.0021,0.0015 z"
     inkscape:connector-curvature="0" />
  <path
     style="fill:#916f6f;stroke-width:0.03787216"
     d="m 27.934031,54.873451 c -0.167263,-0.378127 -0.248852,-1.019681 -0.303491,-2.386423 -0.05722,-1.43128 -0.185378,-2.693691 -0.398629,-3.926639 -0.08524,-0.492811 -0.645696,-2.989594 -0.67843,-3.022328 -0.0073,-0.0073 -0.854147,-0.03685 -1.881877,-0.06567 -5.219219,-0.146347 -5.576167,-0.167572 -6.389353,-0.379924 -0.465061,-0.121445 -0.835192,-0.320135 -1.150765,-0.617745 -0.519874,-0.49028 -0.864905,-1.160408 -1.630524,-3.166848 -0.466468,-1.222461 -0.661459,-1.968118 -0.836858,-3.200198 -0.16347,-1.148283 -0.192975,-1.637566 -0.192975,-3.200198 0,-2.096986 0.07462,-2.888343 0.549927,-5.832312 0.164786,-1.020655 0.411548,-2.57152 0.548359,-3.446367 0.362186,-2.316025 0.513915,-3.024434 0.871176,-4.067451 0.425659,-1.242707 0.829392,-2.053195 2.001633,-4.018255 1.338452,-2.243683 2.008275,-3.23808 2.795864,-4.150643 0.371466,-0.430411 0.741088,-0.754546 1.432364,-1.256092 0.767095,-0.556555 1.763976,-1.412216 3.136527,-2.6921977 L 26.46288,8.8324927 h 20.188123 20.188122 l 0.64755,0.3447285 c 1.783581,0.9495048 3.427714,2.2031998 5.283912,4.0291248 1.725221,1.697078 3.095871,3.342549 4.297934,5.159676 0.661763,1.00037 1.022272,1.629103 1.558534,2.718115 0.950743,1.930701 1.520616,3.421162 1.587279,4.151414 0.05847,0.640493 0.469365,1.431889 1.157835,2.230045 0.582016,0.674739 1.069726,1.424692 1.44794,2.226508 1.398161,2.9641 1.790134,6.785928 1.029566,10.038512 -0.05043,0.215654 -0.23541,0.829183 -0.411068,1.363398 -0.556907,1.693666 -0.815971,2.653892 -1.135661,4.20937 l -0.198488,0.96574 -0.02625,-1.249782 c -0.01444,-0.687379 -0.05175,-1.479854 -0.08291,-1.761055 -0.102607,-0.925888 -0.334631,-2.053194 -0.56776,-2.758467 -0.127308,-0.385139 -0.635412,-1.405677 -0.941866,-1.891755 -0.743283,-1.178948 -1.652343,-2.127234 -2.040495,-2.12854 -0.05811,-1.89e-4 -0.177408,0.03612 -0.265105,0.08071 -0.416874,0.211941 -1.683687,1.094876 -3.170286,2.209604 -1.06453,0.798238 -1.482358,1.091178 -1.988289,1.393991 -1.043211,0.624389 -1.662701,0.737017 -3.825088,0.695427 -1.089999,-0.02097 -1.456919,-0.04888 -1.523968,-0.115924 -0.04399,-0.04399 0.130227,-0.186799 0.477041,-0.391043 0.665195,-0.391739 1.388928,-0.66049 1.96299,-0.728936 0.259182,-0.0309 0.401388,-0.07289 0.636696,-0.187993 1.538602,-0.752625 4.641555,-4.147846 5.591415,-6.118079 0.297827,-0.617754 0.35484,-0.982074 0.178643,-1.141529 -0.06759,-0.06117 -0.107224,-0.06294 -0.479121,-0.0214 -1.334399,0.149048 -4.674401,1.021498 -7.707458,2.013284 -1.162592,0.380159 -1.710617,0.524987 -2.511147,0.663628 -2.269796,0.393096 -6.506298,0.416497 -9.766731,0.05395 -4.629753,-0.514813 -8.866254,-1.889898 -12.80079,-4.154883 -0.880852,-0.507077 -1.526554,-0.911409 -2.613179,-1.636346 -1.243006,-0.829264 -1.981642,-1.279019 -2.320667,-1.413052 -0.143489,-0.05673 -0.176664,-0.05788 -0.290998,-0.01011 -0.483396,0.201976 -0.606118,1.487912 -0.285822,2.994974 0.05755,0.270786 0.198611,0.858752 0.31347,1.30659 0.680638,2.653833 1.17046,7.236999 0.922843,8.634853 -0.09104,0.513966 -0.263569,1.003799 -0.554874,1.575399 -0.814886,1.598971 -1.734281,2.360453 -3.495603,2.895208 -0.274661,0.08339 -0.968052,0.245895 -1.540868,0.361121 -0.572817,0.115227 -1.19351,0.260327 -1.379319,0.322443 -0.999355,0.334087 -1.597338,0.872428 -1.868073,1.681754 -0.09427,0.281803 -0.10142,0.349298 -0.102324,0.96574 -0.0011,0.747316 -0.01943,0.640399 0.396404,2.311997 0.774728,3.114315 0.7771,3.57398 0.01991,3.857279 -0.219874,0.08227 -1.128137,0.266844 -1.781682,0.362073 -0.229127,0.03339 -0.472552,0.06959 -0.540944,0.08045 -0.116994,0.01857 -0.128719,0.0099 -0.198215,-0.147244 z m 2.847317,-33.282482 c -0.132659,-0.27653 -0.180204,-0.565306 -0.131636,-0.799523 0.05639,-0.271923 0.03033,-0.275169 -0.04793,-0.006 -0.101857,0.350375 0.0035,0.762062 0.281131,1.098921 2.215472,1.365063 1.356807,1.138441 -0.101565,-0.293398 z m 0.675446,-1.87023 c 0.04892,-0.05207 0.08043,-0.09468 0.07001,-0.09468 -0.01041,0 -0.05896,0.04261 -0.107884,0.09468 -0.04892,0.05207 -0.08043,0.09468 -0.07001,0.09468 0.01041,0 0.05896,-0.04261 0.107884,-0.09468 z"
     id="path60"
     inkscape:connector-curvature="0"
     sodipodi:nodetypes="cscscccssssssscsccccscsccccccccccssccsscccccccssssscccsscssccccscccccccccccscsc" />
  <path
     style="fill:#916f6f;stroke-width:0.07574432"
     d="m 26.885738,8.4943221 c 0.560388,-0.5009485 2.063546,-1.6173941 2.633559,-1.9560325 1.58003,-0.9386788 5.380907,-1.8095269 10.735313,-2.4596499 4.194693,-0.5093126 6.786349,-0.625269 8.697978,-0.3891665 0.53463,0.066031 2.05141,0.3224339 3.370622,0.569783 2.49521,0.4678464 4.241938,0.7684372 5.27685,0.9080824 1.217501,0.1642827 5.084853,1.6756628 8.331875,3.2561384 l 0.757444,0.3686825 -20.072246,0.00343 -20.072245,0.00343 0.34085,-0.3046958 z"
     id="path64"
     inkscape:connector-curvature="0" />
  <path
     style="fill:#916f6f;stroke-width:0.07574432"
     d="m 27.037226,8.4317148 c 0.604803,-0.5565562 2.230474,-1.7235356 2.80254,-2.011789 2.096222,-1.0562464 7.235192,-2.063342 13.293129,-2.6050846 4.043458,-0.361594 4.826845,-0.3177596 9.464746,0.5295999 0.914693,0.1671176 2.554681,0.4540189 3.644414,0.6375584 2.180366,0.3672302 2.686511,0.5121581 5.048976,1.4457076 1.524007,0.6022251 2.908327,1.2052393 4.300055,1.8731168 l 0.87106,0.4180136 -15.07312,0.00551 c -8.290216,0.00303 -17.254557,0.024686 -19.920757,0.048119 l -4.847637,0.042607 z"
     id="path66"
     inkscape:connector-curvature="0" />
  <path
     style="fill:#916f6f;stroke-width:0.07574432"
     d="m 27.997612,54.955029 c -0.162035,-0.265391 -0.303219,-1.467708 -0.393848,-3.35401 -0.02302,-0.479083 -0.07354,-1.092612 -0.112277,-1.363398 -0.03873,-0.270786 -0.0897,-0.679805 -0.113264,-0.908932 -0.02356,-0.229126 -0.09273,-0.638146 -0.15372,-0.908932 -0.06098,-0.270786 -0.128414,-0.603265 -0.149842,-0.738843 -0.05381,-0.340453 -0.333142,-1.546241 -0.390344,-1.684975 -0.02576,-0.06249 -0.05369,-0.176397 -0.06206,-0.253128 -0.02535,-0.232537 -0.197079,-0.281605 -0.948434,-0.271002 -1.035944,0.01462 -5.187919,-0.142913 -6.201554,-0.235295 -1.384397,-0.126173 -2.143498,-0.463425 -2.659092,-1.181378 -0.316751,-0.441067 -0.802409,-1.490937 -1.274593,-2.755345 -0.791322,-2.118994 -0.993995,-3.428284 -0.996936,-6.440313 -0.0022,-2.223219 0.05097,-2.857338 0.4528,-5.402928 0.124011,-0.785619 0.208143,-1.456441 0.186959,-1.490717 -0.02118,-0.03428 -0.0019,-0.08497 0.04294,-0.112659 0.0448,-0.02769 0.07308,-0.123776 0.06285,-0.213531 -0.01023,-0.08976 0.0054,-0.234649 0.03481,-0.321986 0.02938,-0.08734 0.06635,-0.308889 0.08216,-0.492338 0.01581,-0.183449 0.04598,-0.38467 0.06703,-0.447159 0.02105,-0.06249 0.11274,-0.590806 0.203752,-1.174037 0.265171,-1.699311 0.515876,-2.788252 0.878014,-3.81368 0.186121,-0.527017 0.346048,-0.992298 0.355393,-1.033957 0.0093,-0.04166 0.03825,-0.09279 0.06424,-0.113616 0.02599,-0.02083 0.185802,-0.314164 0.355145,-0.651852 0.169344,-0.337689 0.690447,-1.257982 1.158007,-2.045097 1.854385,-3.121764 2.831847,-4.393348 4.049135,-5.267538 0.185017,-0.132869 0.336395,-0.269887 0.336395,-0.304485 0,-0.0346 0.03864,-0.0629 0.08587,-0.0629 0.191041,0 3.474112,-2.9125502 3.474112,-3.082031 0,-0.054577 0.05965,-0.099356 0.132552,-0.09951 12.531265,-0.026472 40.2046,0.019428 40.234874,0.066735 0.02319,0.036242 0.365976,0.2438257 0.76174,0.4612967 3.316276,1.8222823 7.017489,5.3982563 9.488589,9.1675223 0.314083,0.479083 0.625415,0.930708 0.69185,1.003612 0.06643,0.0729 0.12024,0.149867 0.119568,0.171029 -6.82e-4,0.02116 0.337407,0.728424 0.751285,1.571694 1.030104,2.098822 1.538384,3.450949 1.631722,4.340702 0.02998,0.285819 0.404053,1.09335 0.506469,1.09335 0.04109,0 0.05669,0.02917 0.03465,0.06482 -0.02203,0.03565 0.197833,0.3589 0.488592,0.718329 0.605912,0.74901 1.085824,1.472218 1.426108,2.149086 1.087059,2.162292 1.649566,5.195144 1.451576,7.826426 -0.102998,1.368835 -0.279956,2.252297 -0.749448,3.741613 -0.209297,0.663932 -0.363417,1.234854 -0.342488,1.268717 0.02093,0.03386 0.0083,0.06157 -0.02796,0.06157 -0.05738,0 -0.400649,1.182276 -0.438447,1.510064 -0.0075,0.06514 -0.0351,0.169566 -0.0613,0.232055 -0.0262,0.06249 -0.130302,0.488551 -0.23133,0.946804 -0.101029,0.458253 -0.187357,0.730933 -0.191841,0.605955 -0.0045,-0.124978 -0.02183,-0.670337 -0.03855,-1.211909 -0.01672,-0.541572 -0.04601,-1.121016 -0.06509,-1.287654 -0.01908,-0.166637 -0.05521,-0.484297 -0.08028,-0.70591 -0.02507,-0.221613 -0.06588,-0.435775 -0.09069,-0.475915 -0.02481,-0.04014 -0.06045,-0.199669 -0.07921,-0.35451 -0.08559,-0.706541 -0.771677,-2.515986 -0.953979,-2.515986 -0.03808,0 -0.05135,-0.02892 -0.02951,-0.06427 0.02185,-0.03535 -0.01875,-0.130414 -0.09021,-0.211253 -0.07146,-0.08084 -0.139964,-0.192786 -0.152224,-0.248769 -0.03451,-0.157569 -0.676577,-1.031473 -1.090952,-1.484867 -0.454674,-0.497485 -0.789019,-0.711084 -1.063439,-0.679388 -0.238268,0.02752 -0.739475,0.316848 -0.739475,0.42687 0,0.04072 -0.03199,0.05427 -0.07109,0.0301 -0.0391,-0.02416 -0.101812,0.01096 -0.139361,0.07806 -0.03755,0.0671 -0.09929,0.118634 -0.137208,0.114526 -0.102028,-0.01106 -1.167228,0.747393 -1.167228,0.831093 0,0.03946 -0.0275,0.06321 -0.06111,0.0528 -0.03361,-0.01042 -0.553986,0.343955 -1.156394,0.787488 -2.036631,1.499506 -2.641838,1.817232 -3.731066,1.958766 -0.637442,0.08283 -2.05705,0.09576 -2.879589,0.02623 -0.664897,-0.0562 -0.667163,-0.106401 -0.02144,-0.474884 0.554303,-0.316313 1.074584,-0.507945 1.760673,-0.648498 0.585165,-0.119878 1.366912,-0.499228 1.447265,-0.702299 0.02061,-0.05207 0.08466,-0.09468 0.142335,-0.09468 0.05768,0 0.147444,-0.06817 0.199477,-0.151489 0.05203,-0.08332 0.129351,-0.151488 0.171816,-0.151488 0.17065,0 2.474138,-2.450479 3.151457,-3.352559 1.088446,-1.449635 1.668801,-2.661566 1.439225,-3.005469 -0.04998,-0.07487 -0.187506,-0.103219 -0.438172,-0.09032 -0.634151,0.03264 -3.599024,0.698196 -3.780234,0.848587 -0.0458,0.03801 -0.09941,0.05297 -0.119135,0.03324 -0.03335,-0.03335 -0.94502,0.203635 -1.199978,0.311929 -0.06249,0.02654 -0.181786,0.05795 -0.265105,0.0698 -0.08332,0.01185 -0.253743,0.06307 -0.378722,0.113816 -0.124978,0.05075 -0.295402,0.101876 -0.378721,0.113616 -0.08332,0.01174 -0.253744,0.06374 -0.378722,0.115549 -0.124978,0.05181 -0.269839,0.08724 -0.321913,0.07874 -0.05207,-0.0085 -0.09468,0.02212 -0.09468,0.06807 0,0.04594 -0.02816,0.06613 -0.06259,0.04485 -0.03442,-0.02127 -0.426707,0.07939 -0.871745,0.223703 -2.313053,0.750047 -3.788064,0.940218 -7.283927,0.939107 -2.808335,-8.94e-4 -4.961915,-0.169258 -7.212295,-0.563849 -0.569259,-0.09982 -1.059654,-0.166258 -1.089766,-0.147648 -0.03011,0.01861 -0.06618,0.0081 -0.08015,-0.02344 -0.01397,-0.0315 -0.553722,-0.188807 -1.199442,-0.349561 -3.388689,-0.843628 -6.507018,-2.215253 -9.846762,-4.331185 -0.520742,-0.329922 -0.963846,-0.59444 -0.984676,-0.58782 -0.02083,0.0066 -0.06553,-0.03738 -0.09934,-0.09779 -0.0338,-0.06041 -0.08988,-0.09227 -0.124616,-0.0708 -0.03473,0.02147 -0.08353,-0.01406 -0.108426,-0.07895 -0.0249,-0.06489 -0.07603,-0.09897 -0.113616,-0.07574 -0.03759,0.02323 -0.08872,-0.01085 -0.113617,-0.07575 -0.0249,-0.06489 -0.0796,-0.09677 -0.121553,-0.07084 -0.04195,0.02593 -0.07628,0.01521 -0.07628,-0.02383 0,-0.0747 -0.753383,-0.557375 -0.853596,-0.546874 -0.03205,0.0034 -0.131346,-0.06197 -0.22065,-0.145164 -0.0893,-0.0832 -0.278707,-0.189665 -0.420896,-0.236592 -0.229543,-0.07576 -0.278843,-0.06623 -0.439777,0.08496 -0.09969,0.09365 -0.165049,0.196497 -0.145244,0.228543 0.01981,0.03205 -0.0068,0.07252 -0.05914,0.08994 -0.122966,0.04094 -0.163874,1.626354 -0.05546,2.149267 0.07971,0.384458 0.107448,0.519415 0.184893,0.899637 0.02546,0.124978 0.128259,0.571285 0.228452,0.991794 0.528561,2.218375 0.956082,5.561467 0.946117,7.398356 -0.0057,1.057876 -0.159042,1.746659 -0.570936,2.565179 -0.731812,1.454264 -1.526967,2.217795 -2.862437,2.748598 -0.482744,0.191875 -2.410522,0.68701 -2.994354,0.769077 -0.141172,0.01985 -0.294555,0.05975 -0.34085,0.08867 -0.04629,0.02893 -0.148587,0.06261 -0.227317,0.07486 -0.248796,0.03871 -0.78219,0.301494 -0.94751,0.466815 -0.08752,0.08752 -0.18326,0.150604 -0.212756,0.14019 -0.110085,-0.03887 -0.618424,0.736929 -0.726966,1.109452 -0.200471,0.688034 -0.114747,1.701769 0.276077,3.264782 0.620169,2.480224 0.705102,3.191486 0.423805,3.549097 -0.176224,0.224032 -0.581018,0.358569 -1.623534,0.539595 -1.105508,0.191965 -1.160562,0.198231 -1.198327,0.136378 z M 31.205267,21.928181 C 30.751298,21.510218 30.730042,21.47432 30.678269,21.038185 l -0.05395,-0.454466 -0.06047,0.287309 c -0.09869,0.468885 0.11802,0.919774 0.591147,1.229964 0.569252,0.373212 0.5849,0.319417 0.05027,-0.172811 z m 0.300874,-2.215522 c 0,-0.04166 -0.01503,-0.07574 -0.0334,-0.07574 -0.01837,0 -0.05447,0.03409 -0.08022,0.07574 -0.02575,0.04166 -0.01072,0.07575 0.0334,0.07575 0.04412,0 0.08021,-0.03409 0.08021,-0.07575 z"
     id="path68"
     inkscape:connector-curvature="0" />
  <path
     style="fill:#916f6f;stroke-width:0.07574432"
     d="M 27.997612,54.955029 C 27.848523,54.710844 27.671429,53.340911 27.608094,51.941868 27.566294,51.0186 27.483816,49.983179 27.44737,49.924207 27.42944,49.895197 27.397,49.65905 27.37528,49.399424 c -0.0346,-0.413571 -0.07053,-0.615989 -0.234377,-1.320516 -0.01938,-0.08332 -0.04829,-0.236701 -0.06425,-0.34085 -0.04893,-0.319325 -0.343282,-1.621532 -0.393792,-1.742119 -0.02618,-0.06249 -0.05089,-0.163629 -0.05491,-0.224755 -0.0138,-0.209518 -0.361703,-0.309259 -1.029869,-0.295255 -0.898583,0.01883 -5.172261,-0.147741 -6.144208,-0.239482 -2.162312,-0.204098 -2.673365,-0.695783 -3.816182,-3.671551 -0.876968,-2.283527 -1.097583,-3.640195 -1.096227,-6.741244 9.69e-4,-2.216947 0.0323,-2.622182 0.37692,-4.875009 0.125755,-0.822082 0.247313,-1.646462 0.270128,-1.831954 0.05853,-0.475844 0.08124,-0.614031 0.136346,-0.829597 0.02662,-0.104149 0.06522,-0.342743 0.08577,-0.530211 0.07424,-0.677284 0.627554,-3.687557 0.786613,-4.279554 0.1737,-0.646489 0.656967,-2.045806 0.771691,-2.234457 0.038,-0.06249 0.201776,-0.369254 0.363943,-0.681699 0.651158,-1.254573 2.288598,-3.948835 3.048109,-5.015393 0.2882,-0.404712 0.719302,-0.94685 0.958004,-1.204752 0.419564,-0.453313 0.741869,-0.726858 2.13825,-1.814761 0.591205,-0.460601 1.463266,-1.240029 2.366175,-2.1148334 0.36548,-0.3541047 0.706911,-0.6573799 0.758734,-0.6739448 0.05182,-0.016565 0.281692,-0.190312 0.510819,-0.3861046 0.516288,-0.4411772 1.710231,-1.3250381 2.291115,-1.6960834 1.751573,-1.1188345 6.55188,-2.1341093 13.294708,-2.8118589 2.126178,-0.2137109 4.074254,-0.2868397 5.285876,-0.1984266 1.201846,0.0877 1.517378,0.1365247 5.449452,0.8432387 1.37476,0.2470864 2.942667,0.5195911 3.484239,0.605566 0.541572,0.085975 1.240313,0.2271927 1.552759,0.3138174 1.262948,0.3501495 3.909598,1.4054441 6.400395,2.5520188 l 1.590631,0.7322064 -1.855736,0.039906 -1.855736,0.039906 2.022502,0.016902 2.022502,0.016902 0.931527,0.5414585 c 1.716754,0.9978789 2.638245,1.6845959 4.305131,3.2082819 1.830019,1.672804 3.637933,3.777637 4.976704,5.794044 0.40106,0.604061 0.748575,1.115335 0.772256,1.136164 0.0782,0.06879 1.505035,3.05481 1.77697,3.718785 0.294437,0.718913 0.639167,1.851173 0.689343,2.26413 0.03608,0.296972 0.410126,1.137052 0.506269,1.137052 0.034,0 0.06182,0.04352 0.06182,0.0967 0,0.05319 0.214686,0.368472 0.477081,0.700635 0.729455,0.923412 1.097068,1.496765 1.498552,2.337236 1.036473,2.169762 1.560343,5.101653 1.362189,7.623639 -0.104717,1.332786 -0.239514,2.052799 -0.623474,3.330233 -0.169041,0.562401 -0.313939,1.064168 -0.321995,1.115036 -0.0081,0.05087 -0.03836,0.116198 -0.06733,0.145176 -0.02898,0.02898 -0.05269,0.142446 -0.05269,0.252149 0,0.109703 -0.03078,0.231841 -0.06839,0.271417 -0.07345,0.07727 -0.386268,1.150903 -0.415659,1.426575 -0.0098,0.09167 -0.03617,0.19932 -0.05866,0.239217 -0.02249,0.0399 -0.122608,0.460497 -0.22249,0.934666 -0.165355,0.784985 -0.185958,0.835814 -0.230259,0.568084 -0.02676,-0.161724 -0.05193,-0.703063 -0.05593,-1.202976 -0.004,-0.499913 -0.02278,-1.045271 -0.04173,-1.211909 -0.103451,-0.909769 -0.126665,-1.073482 -0.171847,-1.211909 -0.0272,-0.08332 -0.05761,-0.202616 -0.0676,-0.265105 -0.08042,-0.503359 -0.310429,-1.326422 -0.444513,-1.590631 -0.05285,-0.104148 -0.177387,-0.356851 -0.276739,-0.561562 -0.278598,-0.574033 -0.386179,-0.75913 -0.476376,-0.819612 -0.04564,-0.03061 -0.05615,-0.05617 -0.02336,-0.05681 0.09048,-0.0018 -0.510176,-0.857643 -1.00699,-1.434882 -0.448859,-0.521521 -0.816368,-0.762864 -1.161663,-0.762864 -0.213489,0 -0.73139,0.276638 -0.73139,0.390673 0,0.04 -0.03433,0.05152 -0.07628,0.02559 -0.04195,-0.02593 -0.09673,0.0061 -0.12172,0.07127 -0.02499,0.06513 -0.07883,0.118417 -0.119639,0.118417 -0.109844,0 -1.197248,0.765338 -1.197248,0.842648 0,0.03646 -0.03488,0.06628 -0.07752,0.06628 -0.04264,0 -0.562432,0.35351 -1.155101,0.785579 -2.052603,1.496388 -2.606917,1.790942 -3.640997,1.934769 -0.635739,0.08842 -2.475392,0.09863 -3.15528,0.0175 l -0.416594,-0.04971 0.325692,-0.240282 c 0.407951,-0.300969 1.295893,-0.674239 1.922731,-0.80827 0.546726,-0.116902 1.492063,-0.543694 1.552369,-0.70085 0.02228,-0.05805 0.07827,-0.10555 0.124416,-0.10555 0.04615,0 0.153282,-0.06458 0.238066,-0.1435 0.500985,-0.466364 1.975061,-1.963157 2.426482,-2.463876 0.550689,-0.610828 1.396459,-1.703397 1.399516,-1.807898 9.62e-4,-0.03299 0.06503,-0.127899 0.142376,-0.210916 0.151446,-0.162558 0.606653,-1.063046 0.774139,-1.531394 0.213824,-0.59793 -0.163819,-0.684745 -1.672204,-0.384418 -0.856575,0.170548 -2.276694,0.516816 -2.499563,0.609469 -0.06249,0.02598 -0.180019,0.05997 -0.261176,0.07554 -0.31001,0.05947 -1.066329,0.267638 -1.139391,0.313599 -0.04205,0.02645 -0.154447,0.05882 -0.249781,0.07193 -0.09533,0.01311 -0.265759,0.06191 -0.378722,0.108442 -0.112963,0.04653 -0.283387,0.09766 -0.378722,0.113616 -0.09533,0.01596 -0.265758,0.06742 -0.378721,0.114363 -0.112963,0.04694 -0.22243,0.09115 -0.24326,0.09824 -0.02083,0.0071 -0.089,0.03242 -0.151489,0.05629 -0.06249,0.02387 -0.249956,0.07631 -0.416593,0.116538 -0.166638,0.04023 -0.711997,0.198711 -1.211909,0.352186 -1.764982,0.541855 -3.459066,0.726696 -6.627629,0.723141 -2.791788,-0.0031 -4.746864,-0.151969 -7.006349,-0.533377 -0.499913,-0.08439 -0.994145,-0.163121 -1.098293,-0.174965 -0.104148,-0.01184 -0.240488,-0.04321 -0.302977,-0.0697 -0.06249,-0.02649 -0.471509,-0.136339 -0.908932,-0.244105 -3.510114,-0.864778 -6.920552,-2.352329 -10.083006,-4.397965 -0.404002,-0.261329 -0.754715,-0.454978 -0.779363,-0.430331 -0.02465,0.02465 -0.04481,0.005 -0.04481,-0.04355 0,-0.0486 -0.04748,-0.08837 -0.105512,-0.08837 -0.05803,0 -0.125961,-0.05329 -0.150954,-0.118417 -0.02499,-0.06513 -0.07619,-0.09941 -0.113783,-0.07618 -0.03759,0.02323 -0.08872,-0.01085 -0.113617,-0.07574 -0.0249,-0.06489 -0.07603,-0.09897 -0.113616,-0.07574 -0.03759,0.02323 -0.08976,-0.01357 -0.115934,-0.08179 -0.02618,-0.06821 -0.06746,-0.104154 -0.09175,-0.07987 -0.02428,0.02428 -0.111813,-0.01888 -0.194509,-0.09593 -0.0827,-0.07704 -0.309142,-0.219852 -0.503211,-0.317353 -0.19407,-0.0975 -0.369897,-0.198257 -0.390727,-0.223906 -0.02083,-0.02565 -0.182377,-0.119893 -0.358994,-0.209432 -0.379019,-0.192151 -0.521353,-0.138798 -0.746869,0.27996 -0.116838,0.216954 -0.143002,0.422602 -0.140716,1.105984 0.0028,0.822982 0.01569,0.944052 0.174627,1.634789 0.04314,0.187468 0.09376,0.426062 0.112506,0.530211 0.01874,0.104148 0.137961,0.66655 0.264932,1.249781 0.482268,2.21526 0.860942,5.323624 0.846801,6.951008 -0.0099,1.135125 -0.174933,1.797335 -0.696763,2.795187 -0.657847,1.257946 -1.459893,2.004919 -2.675288,2.491587 -0.475469,0.190387 -2.148214,0.635745 -2.99127,0.796406 -0.104148,0.01985 -0.240488,0.05519 -0.302977,0.07853 -0.06249,0.02334 -0.195877,0.05812 -0.296418,0.07728 -0.275526,0.05251 -1.00354,0.425781 -1.045947,0.53629 -0.02048,0.05338 -0.08068,0.09705 -0.133763,0.09705 -0.139575,0 -0.567524,0.61632 -0.683722,0.984676 -0.0066,0.02083 -0.03935,0.100469 -0.07283,0.176978 -0.03349,0.07651 -0.04197,0.570739 -0.01884,1.098293 0.0333,0.759711 0.105093,1.219094 0.345231,2.208968 0.586337,2.416939 0.661564,3.085716 0.38644,3.43548 -0.176224,0.224032 -0.581018,0.358569 -1.623534,0.539595 -1.105508,0.191965 -1.160562,0.198231 -1.198327,0.136378 z m 3.175019,-33.038367 c -0.410209,-0.414535 -0.446235,-0.479264 -0.495347,-0.889996 -0.05258,-0.43975 -0.05339,-0.440932 -0.111895,-0.163843 -0.06024,0.285321 0.02845,0.674885 0.204589,0.898591 0.08878,0.112754 0.736521,0.591973 0.809537,0.598919 0.01952,0.0019 -0.163572,-0.197794 -0.406884,-0.443671 z"
     id="path70"
     inkscape:connector-curvature="0" />
  <path
     style="fill:#916f6f;stroke-width:0.07574432"
     d="m 27.94679,54.821814 c -0.153363,-0.403374 -0.342453,-2.109965 -0.423943,-3.826191 -0.02471,-0.520434 -0.05919,-0.969325 -0.07663,-0.997533 -0.01743,-0.02821 -0.04886,-0.250012 -0.06983,-0.492897 -0.03185,-0.368816 -0.06502,-0.57502 -0.150239,-0.933947 -0.07325,-0.308529 -0.197388,-0.937742 -0.23162,-1.174037 -0.02414,-0.166638 -0.110803,-0.558614 -0.192586,-0.87106 -0.08178,-0.312445 -0.163757,-0.63375 -0.182165,-0.71401 -0.06078,-0.264999 -0.178022,-0.298799 -1.093273,-0.315183 -2.780365,-0.04977 -6.271529,-0.236598 -6.910377,-0.369802 -1.401259,-0.292171 -1.915783,-0.873837 -2.849563,-3.221408 -1.002224,-2.519644 -1.220377,-3.772957 -1.227282,-7.050854 -0.0045,-2.124401 0.05801,-2.948994 0.37314,-4.924152 0.08243,-0.516671 0.169698,-1.143911 0.193922,-1.393867 0.02422,-0.249956 0.06622,-0.556721 0.09332,-0.681699 0.0271,-0.124978 0.05323,-0.261318 0.05806,-0.302977 0.0048,-0.04166 0.03483,-0.195042 0.06666,-0.34085 0.03183,-0.145808 0.06998,-0.384402 0.08477,-0.53021 0.01479,-0.145808 0.150017,-0.963847 0.300498,-1.817864 0.303321,-1.721428 0.605198,-2.940478 0.949713,-3.83517 0.125465,-0.32583 0.228119,-0.617474 0.228119,-0.648099 0,-0.08381 0.992172,-1.844038 1.763714,-3.129035 1.795068,-2.989674 2.541893,-3.944278 3.954982,-5.055329 0.249957,-0.19653 0.676019,-0.530934 0.946804,-0.743121 0.554559,-0.434549 1.493794,-1.274211 2.361587,-2.1112232 0.320737,-0.3093606 0.636852,-0.5925216 0.702475,-0.6292466 0.06562,-0.036725 0.480652,-0.3552992 0.922286,-0.7079428 2.032152,-1.6226708 2.98667,-2.0711742 5.860414,-2.7536573 3.805509,-0.9037671 11.361198,-1.7795552 14.126316,-1.6373966 1.28707,0.06617 2.029708,0.172363 5.302103,0.7581692 1.499737,0.2684748 3.255112,0.5762219 3.900832,0.6838824 0.645721,0.1076604 1.429674,0.2648001 1.74212,0.3491992 1.247324,0.3369325 4.195707,1.5202653 6.741244,2.7055959 l 1.249782,0.5819614 -1.060421,0.041142 -1.06042,0.041142 1.234835,0.015666 1.234836,0.015666 0.810261,0.4665246 c 3.458624,1.9913758 6.744356,5.1680728 9.427992,9.1151328 1.201721,1.767477 2.587286,4.695773 3.046358,6.438267 0.109754,0.416594 0.23971,0.893783 0.288792,1.060421 0.09567,0.324807 0.56477,1.050996 1.36004,2.105393 2.028361,2.689277 2.928002,7.199687 2.206796,11.063917 -0.127759,0.684533 -0.509654,2.073456 -0.91917,3.342951 -0.147824,0.458253 -0.274539,0.892141 -0.28159,0.964197 -0.0071,0.07205 -0.03624,0.154427 -0.06486,0.183049 -0.02862,0.02862 -0.05204,0.150854 -0.05204,0.271627 0,0.120774 -0.03213,0.279623 -0.0714,0.352999 -0.03927,0.07337 -0.08465,0.215996 -0.100846,0.316933 -0.01619,0.100939 -0.09423,0.473246 -0.173419,0.827351 -0.123117,0.550563 -0.1511,0.61091 -0.19317,0.416594 -0.02706,-0.124978 -0.05354,-0.636252 -0.05884,-1.136165 -0.01389,-1.308542 -0.216235,-2.730073 -0.54987,-3.86296 -0.187998,-0.638365 -1.06225,-2.317397 -1.447137,-2.779278 -0.114806,-0.137772 -0.302274,-0.369296 -0.416594,-0.514497 -0.314742,-0.399762 -0.692209,-0.73686 -0.940055,-0.839522 -0.267873,-0.110957 -0.697668,-0.0069 -0.952637,0.230639 -0.09051,0.08432 -0.200074,0.153314 -0.243476,0.153314 -0.0434,0 -0.07891,0.0302 -0.07891,0.06711 0,0.03691 -0.120823,0.124448 -0.268496,0.194523 -0.147673,0.07008 -0.449964,0.275217 -0.671757,0.455871 -0.221793,0.180653 -0.535553,0.413792 -0.697244,0.518086 -0.16169,0.104295 -0.771172,0.532376 -1.354403,0.951291 -1.303605,0.936335 -1.983712,1.329646 -2.575307,1.489321 -0.542251,0.146356 -2.508411,0.232327 -3.473941,0.151899 -0.632932,-0.05272 -0.658666,-0.06182 -0.541474,-0.191311 0.269905,-0.298242 1.109866,-0.662836 2.43764,-1.058083 0.706709,-0.210372 1.377505,-0.658073 2.231747,-1.489508 0.807572,-0.786011 2.565161,-2.679895 2.565161,-2.764078 0,-0.03184 0.09816,-0.16537 0.21814,-0.296727 0.119977,-0.131358 0.264515,-0.32945 0.321196,-0.440205 0.05668,-0.110755 0.217886,-0.384513 0.358234,-0.608352 0.561239,-0.895115 0.776908,-1.674285 0.493532,-1.783027 -0.06808,-0.02613 -0.229985,-0.03068 -0.359785,-0.01012 -0.129801,0.02056 -0.404441,0.05717 -0.61031,0.08137 -0.677998,0.07967 -2.807144,0.575851 -3.06727,0.714807 -0.06512,0.03479 -0.254744,0.08397 -0.421382,0.109292 -0.264887,0.04025 -0.672087,0.156923 -1.514886,0.434042 -0.124978,0.04109 -0.312446,0.09131 -0.416594,0.111601 -0.104148,0.02029 -0.399684,0.120423 -0.656746,0.222525 -0.257061,0.102103 -0.514044,0.185641 -0.571072,0.185641 -0.05703,0 -0.56249,0.138199 -1.123246,0.307109 -1.908484,0.574868 -3.571432,0.760844 -6.738255,0.753577 -2.80289,-0.0064 -4.497609,-0.129091 -6.779116,-0.49065 -0.624891,-0.09903 -1.23842,-0.196079 -1.363398,-0.215667 -0.319061,-0.05001 -2.105629,-0.537092 -3.14339,-0.857005 -2.202162,-0.678866 -4.897954,-1.902594 -7.029117,-3.190797 -0.654028,-0.395334 -1.291396,-0.774151 -1.416374,-0.841816 -0.124979,-0.06766 -0.238595,-0.14859 -0.252481,-0.179835 -0.01389,-0.03124 -0.07354,-0.05681 -0.132553,-0.05681 -0.05902,0 -0.107305,-0.03408 -0.107305,-0.07574 0,-0.04166 -0.05113,-0.07575 -0.113616,-0.07575 -0.06249,0 -0.113616,-0.03409 -0.113616,-0.07574 0,-0.04166 -0.05113,-0.07574 -0.113617,-0.07574 -0.06249,0 -0.113616,-0.03409 -0.113616,-0.07575 0,-0.04166 -0.05113,-0.07574 -0.113617,-0.07574 -0.06249,0 -0.113616,-0.03408 -0.113616,-0.07574 0,-0.04166 -0.03992,-0.07575 -0.08872,-0.07575 -0.04879,0 -0.153717,-0.05965 -0.233162,-0.132552 -0.317285,-0.291159 -1.448026,-0.872741 -1.627944,-0.83731 -0.541638,0.106663 -0.670733,1.655295 -0.276382,3.315505 0.06464,0.272123 0.128185,0.562939 0.141214,0.646258 0.01303,0.08332 0.12885,0.662763 0.257379,1.287654 0.691746,3.363179 0.948785,6.726556 0.614078,8.035248 -0.32465,1.269372 -1.285556,2.694317 -2.247452,3.332787 -0.726571,0.48227 -1.242845,0.652469 -4.113447,1.356065 -0.725064,0.177717 -1.085761,0.330614 -1.486311,0.630039 -0.366692,0.274115 -0.466288,0.39476 -0.695348,0.84231 -0.190296,0.371809 -0.222754,0.525823 -0.235789,1.118826 -0.01619,0.736419 0.09436,1.409939 0.563187,3.431444 0.149757,0.645721 0.291199,1.446717 0.314316,1.779992 0.03775,0.544264 0.02524,0.627092 -0.122913,0.81358 -0.195195,0.245704 -0.612012,0.379981 -1.831029,0.589862 -1.058333,0.182217 -0.964971,0.185629 -1.05014,-0.03838 z M 31.136631,21.8807 c -0.355154,-0.359621 -0.408354,-0.45488 -0.454742,-0.814252 -0.04624,-0.358187 -0.05926,-0.381669 -0.108635,-0.19585 -0.118376,0.445515 0.135928,0.912554 0.703572,1.292136 0.312948,0.209268 0.280462,0.143913 -0.140195,-0.282034 z"
     id="path72"
     inkscape:connector-curvature="0" />
  <path
     style="fill:#916f6f;stroke-width:0.07574432"
     d=""
     id="path74"
     inkscape:connector-curvature="0" />
  <path
     style="fill:#916f6f;stroke-width:0.07574432"
     d=""
     id="path76"
     inkscape:connector-curvature="0" />
  <path
     style="fill:#916f6f;stroke-width:0.07574432"
     d="m 27.953925,54.872537 c -0.129505,-0.241982 -0.325909,-1.896915 -0.424212,-3.574495 -0.05579,-0.952147 -0.237456,-2.347829 -0.422822,-3.248496 -0.08242,-0.400445 -0.167454,-0.830336 -0.188976,-0.955314 -0.05979,-0.347189 -0.354257,-1.432492 -0.404391,-1.490436 -0.02441,-0.02821 -1.118056,-0.08746 -2.430326,-0.131662 -4.954694,-0.166898 -5.848613,-0.274533 -6.639125,-0.799404 -0.216513,-0.143756 -0.502459,-0.41951 -0.635438,-0.612788 -0.541483,-0.787019 -1.487546,-3.104503 -1.85397,-4.541504 -0.298754,-1.171619 -0.412488,-2.458633 -0.414882,-4.694786 -0.0025,-2.371942 0.08156,-3.260181 0.652622,-6.892734 0.06549,-0.416593 0.134497,-0.87674 0.153346,-1.022548 0.03512,-0.271668 0.261976,-1.520583 0.605373,-3.33275 0.106572,-0.562402 0.363856,-1.533823 0.571741,-2.158713 0.401758,-1.20766 1.023863,-2.390921 2.629813,-5.001973 1.605044,-2.609578 2.100322,-3.164642 4.545932,-5.094669 0.521302,-0.411402 1.328954,-1.140862 2.213119,-1.9988622 0.201281,-0.1953238 0.494247,-0.4509609 0.651036,-0.5680825 0.15679,-0.1171216 0.613971,-0.4729747 1.01596,-0.7907846 1.097841,-0.8679465 2.145717,-1.5364111 2.888088,-1.842377 2.218751,-0.914453 7.018124,-1.7854484 13.006931,-2.360512 1.662692,-0.1596567 4.537764,-0.1805818 5.529336,-0.040243 0.68702,0.097235 7.286229,1.2386732 8.634852,1.4935349 1.470218,0.2778405 4.612253,1.4871932 7.876216,3.0315135 l 0.94561,0.4474086 -0.566888,0.043162 -0.566889,0.043162 0.757443,0.01368 0.757443,0.01368 1.043686,0.6248566 c 1.963038,1.1752747 3.264233,2.2023707 5.058547,3.9929567 2.585343,2.579969 4.330821,4.963434 5.687492,7.766316 0.876621,1.811096 1.237705,2.714827 1.542702,3.861113 0.292831,1.100558 0.370983,1.255712 1.238393,2.458551 0.865291,1.199902 1.457471,2.256203 1.828726,3.261992 0.752673,2.039116 1.097868,4.58843 0.91281,6.741245 -0.127766,1.486332 -0.274211,2.136983 -1.082555,4.809764 -0.16379,0.541572 -0.308651,1.035804 -0.321913,1.098293 -0.01326,0.06249 -0.09834,0.420381 -0.189065,0.795315 -0.09072,0.374935 -0.179609,0.749869 -0.197524,0.833188 -0.01792,0.08332 -0.07868,0.321913 -0.135028,0.53021 l -0.102456,0.378722 -0.04549,-0.34085 c -0.02502,-0.187467 -0.06156,-0.852123 -0.0812,-1.477014 -0.03728,-1.186306 -0.223881,-2.415672 -0.506919,-3.339737 -0.407787,-1.331345 -1.714513,-3.384401 -2.56562,-4.03096 -0.277802,-0.211037 -0.383029,-0.248984 -0.59503,-0.214581 -0.141651,0.02299 -0.343936,0.103001 -0.449522,0.177808 -0.105585,0.07481 -0.246841,0.1701 -0.313902,0.21176 -0.06706,0.04166 -0.13897,0.09621 -0.1598,0.121229 -0.02083,0.02502 -0.190495,0.141121 -0.377035,0.258009 -0.18654,0.116888 -0.377134,0.249802 -0.423544,0.295364 -0.04641,0.04556 -0.328047,0.253266 -0.625861,0.461562 -0.297815,0.208297 -0.942301,0.66641 -1.432193,1.018027 -2.101317,1.508213 -2.499388,1.665174 -4.37707,1.725887 -0.709375,0.02294 -1.555421,0.01681 -1.880102,-0.01362 -0.565514,-0.05299 -0.585064,-0.06114 -0.465087,-0.193708 0.205285,-0.226839 1.088514,-0.649857 1.817099,-0.870292 1.433265,-0.433637 1.786774,-0.65212 3.056487,-1.889032 0.684093,-0.66642 1.871382,-1.960005 2.228168,-2.427652 0.03206,-0.04203 0.14401,-0.178665 0.248772,-0.303643 0.315416,-0.376286 1.100347,-1.682119 1.253681,-2.08566 0.183547,-0.483057 0.18263,-0.72848 -0.0031,-0.827876 -0.152723,-0.08173 -1.974119,0.187031 -2.769566,0.408677 -0.208297,0.05804 -0.685486,0.191238 -1.06042,0.295995 -0.374935,0.104756 -0.783954,0.215764 -0.908932,0.246685 -0.293964,0.07273 -0.204648,0.04713 -0.984676,0.282236 -0.374935,0.113009 -0.988464,0.303537 -1.363398,0.423395 -1.174978,0.375616 -2.92608,0.833848 -3.635727,0.951405 -2.110781,0.349662 -6.775859,0.368052 -9.657401,0.03807 -1.328832,-0.152171 -3.243766,-0.469264 -3.938705,-0.652208 -4.035589,-1.062375 -6.409358,-2.042047 -9.638777,-3.977995 -0.614646,-0.368463 -1.151484,-0.669933 -1.192973,-0.669933 -0.04149,0 -0.07544,-0.03409 -0.07544,-0.07574 0,-0.04166 -0.05113,-0.07574 -0.113616,-0.07574 -0.06249,0 -0.113617,-0.03409 -0.113617,-0.07575 0,-0.04166 -0.0447,-0.07574 -0.09933,-0.07574 -0.05463,0 -0.172505,-0.06817 -0.261938,-0.151489 -0.08943,-0.08332 -0.182776,-0.151488 -0.20743,-0.151488 -0.02466,0 -0.309613,-0.178946 -0.633239,-0.397658 -0.323626,-0.218712 -0.815305,-0.516955 -1.092618,-0.662763 -0.570973,-0.300209 -0.678485,-0.281639 -0.909914,0.157161 -0.19336,0.36662 -0.146345,2.101153 0.08197,3.024101 0.657124,2.656379 1.173775,6.427346 1.154701,8.428022 -0.01031,1.081326 -0.170115,1.772172 -0.613333,2.65145 -0.385168,0.764114 -0.51914,0.958046 -1.047718,1.516635 -0.789662,0.834496 -1.458989,1.134924 -3.903394,1.75204 -1.741482,0.439657 -2.230825,0.641282 -2.703462,1.113919 -0.515778,0.515779 -0.634124,0.86934 -0.630417,1.883383 0.0033,0.890607 0.05423,1.19495 0.56452,3.370623 0.127023,0.541572 0.252193,1.264303 0.278156,1.606068 0.07397,0.973696 -0.06705,1.103484 -1.49677,1.377591 -1.374576,0.263535 -1.410452,0.26589 -1.500037,0.0985 z m 3.181446,-32.993112 c -0.34746,-0.351832 -0.409165,-0.459106 -0.444524,-0.772804 -0.03276,-0.290663 -0.05321,-0.331426 -0.101176,-0.201748 -0.05545,0.149894 -0.01614,0.381613 0.122845,0.724175 0.05111,0.125969 0.684413,0.658918 0.782994,0.658918 0.02383,0 -0.138231,-0.183843 -0.360139,-0.408541 z"
     id="path78"
     inkscape:connector-curvature="0" />
  <path
     style="fill:#916f6f;stroke-width:0.07574432"
     d="m 27.952029,54.868995 c -0.135733,-0.25362 -0.244897,-1.191124 -0.464317,-3.987547 -0.129849,-1.654877 -0.750062,-4.948462 -0.985193,-5.231777 -0.05276,-0.06357 -0.579295,-0.106375 -1.72107,-0.139914 -2.625822,-0.07713 -5.69385,-0.269721 -6.220314,-0.390471 -1.357675,-0.311393 -1.90421,-0.932549 -2.794167,-3.175668 -0.979637,-2.469159 -1.158313,-3.445821 -1.219423,-6.6655 -0.0253,-1.333101 -0.02138,-2.577201 0.0087,-2.764668 0.03009,-0.187467 0.12644,-0.920294 0.214101,-1.628503 0.209695,-1.694114 0.188059,-1.544521 0.531306,-3.6736 0.825591,-5.120943 1.123385,-6.123988 2.561485,-8.627726 2.095725,-3.648663 3.168931,-5.127263 4.506316,-6.208535 2.044114,-1.65266 1.992249,-1.608408 2.994877,-2.555266 0.805145,-0.7603594 0.958786,-0.890592 2.089476,-1.7711236 1.86091,-1.4491947 2.71862,-1.915433 4.451111,-2.419558 3.718743,-1.0820901 12.118391,-2.1710507 15.583262,-2.0202701 1.238186,0.053882 1.7247,0.1199511 4.771892,0.6480269 1.187293,0.2057568 2.260968,0.3895011 2.385947,0.4083209 0.124978,0.01882 0.312445,0.053865 0.416593,0.077878 0.104149,0.024013 0.291616,0.058837 0.416594,0.077387 0.681154,0.101099 2.426463,0.431365 2.824145,0.5344149 1.421773,0.3684186 4.931424,1.786453 7.628571,3.0822377 l 0.530211,0.2547278 -0.302978,0.04606 c -0.255807,0.038889 -0.224926,0.047733 0.198351,0.056808 0.483284,0.010362 0.536473,0.031876 1.477859,0.5977669 2.292007,1.3777836 4.090088,2.8615606 6.06501,5.0048506 2.108472,2.288225 3.553439,4.362638 4.731309,6.792328 0.888765,1.83333 1.228558,2.690499 1.580418,3.986789 0.268066,0.987586 0.382658,1.206194 1.285046,2.451478 0.76406,1.054394 1.101159,1.616646 1.463886,2.441636 0.855514,1.945789 1.344001,4.651036 1.234568,6.837043 -0.08333,1.664557 -0.310119,2.80104 -1.005155,5.036998 -0.142445,0.458253 -0.435211,1.542704 -0.65059,2.409892 -0.240059,0.966554 -0.410728,1.523471 -0.441029,1.439142 -0.02719,-0.07566 -0.06955,-0.717006 -0.09414,-1.425216 -0.06789,-1.955459 -0.352502,-3.354827 -0.931353,-4.579258 -0.697254,-1.474883 -1.965703,-3.098479 -2.514958,-3.219109 -0.308792,-0.06782 -0.565116,0.07976 -2.349304,1.352617 -0.694969,0.495797 -1.588359,1.132687 -1.985312,1.415311 -1.797417,1.279736 -2.227176,1.434459 -4.135434,1.488855 -0.75511,0.02152 -1.601291,0.01468 -1.8804,-0.01521 -0.485814,-0.05203 -0.502115,-0.06027 -0.381934,-0.193065 0.213711,-0.236147 1.098591,-0.653854 1.931015,-0.911536 0.437423,-0.135406 0.953684,-0.32522 1.147244,-0.421809 0.995053,-0.496541 3.204401,-2.708789 4.488949,-4.494841 0.616165,-0.856723 1.195411,-2.001982 1.165893,-2.305148 -0.02175,-0.22341 -0.04178,-0.237111 -0.378207,-0.258799 -0.295304,-0.01904 -0.93262,0.07871 -2.174896,0.333581 -0.43586,0.08942 -3.537352,0.958862 -4.400472,1.233583 -3.44216,1.095598 -4.838926,1.304462 -8.672725,1.296866 -2.829942,-0.0056 -4.221679,-0.102916 -6.627628,-0.463395 -0.562401,-0.08426 -1.141846,-0.170234 -1.287653,-0.191044 -0.299996,-0.04282 -1.44492,-0.35168 -2.954029,-0.796896 -2.018993,-0.595642 -4.289562,-1.541253 -6.087374,-2.535176 -1.03017,-0.56953 -2.617285,-1.501963 -2.752578,-1.617146 -0.05032,-0.04284 -0.108193,-0.07788 -0.128614,-0.07788 -0.02042,0 -0.5057,-0.307512 -1.078398,-0.68336 -1.169161,-0.767293 -1.790288,-1.095922 -1.953198,-1.033407 -0.271953,0.104358 -0.382089,0.442438 -0.409783,1.257892 -0.02893,0.851982 0.01625,1.173291 0.474579,3.375031 0.709396,3.407797 1.056611,7.021657 0.803078,8.358531 -0.182081,0.960108 -0.804646,2.153795 -1.524847,2.923692 -0.825625,0.882595 -1.482016,1.190271 -3.804011,1.783085 -1.790609,0.457148 -2.033204,0.541638 -2.5282,0.880511 -0.759575,0.520002 -1.069793,1.314493 -0.972521,2.490699 0.04693,0.567478 0.13742,1.036192 0.621481,3.219133 0.106235,0.479083 0.210398,1.14374 0.231472,1.477015 0.06059,0.958109 -0.101683,1.077678 -1.904446,1.403295 -1.010571,0.18253 -1.005234,0.182486 -1.098111,0.0089 z M 31.104231,21.848408 C 30.837023,21.57712 30.729093,21.398935 30.679848,21.147773 l -0.06604,-0.336821 -0.0083,0.289021 c -0.01051,0.365939 0.08569,0.557801 0.433661,0.864953 0.424129,0.374371 0.469151,0.293742 0.06506,-0.116518 z"
     id="path80"
     inkscape:connector-curvature="0" />
  <path
     style="fill:#916f6f;stroke-width:0.00669492"
     d=""
     id="path82"
     inkscape:connector-curvature="0" />
  <path
     style="fill:#916f6f;stroke-width:0.00669492"
     d="m 31.235036,22.102461 c -0.114436,-0.07261 -0.143874,-0.0949 -0.204751,-0.155093 -0.0391,-0.03866 -0.09344,-0.100387 -0.120755,-0.137164 -0.04889,-0.06583 -0.133342,-0.200316 -0.133342,-0.21233 0,-0.0034 0.07456,0.06445 0.165699,0.15073 0.09113,0.08628 0.215409,0.201431 0.276165,0.255886 0.06076,0.05445 0.121764,0.115398 0.135572,0.135432 0.02456,0.03563 0.03018,0.04903 0.02009,0.0479 -0.0028,-3.09e-4 -0.06517,-0.03872 -0.138673,-0.08536 z"
     id="path84"
     inkscape:connector-curvature="0" />
  <path
     style="fill:#916f6f;stroke-width:0.00669492"
     d="m 31.284012,22.129089 c -0.12027,-0.07533 -0.164511,-0.105827 -0.209414,-0.144339 -0.04903,-0.04205 -0.143287,-0.147229 -0.180345,-0.20124 -0.0449,-0.06544 -0.10452,-0.160392 -0.1046,-0.166588 -4.2e-5,-0.0032 0.01875,0.01168 0.04177,0.03299 0.269199,0.249155 0.405904,0.376422 0.451636,0.420455 0.05339,0.0514 0.09422,0.101626 0.08782,0.108022 -0.0017,0.0017 -0.04082,-0.02045 -0.08687,-0.0493 z"
     id="path86"
     inkscape:connector-curvature="0" />
  <path
     style="fill:#916f6f;stroke-width:0.00669492"
     d="m 30.886193,21.816471 c -0.121189,-0.127501 -0.193265,-0.23821 -0.233203,-0.358203 -0.03444,-0.103479 -0.04435,-0.18578 -0.04319,-0.358666 9.78e-4,-0.145829 0.001,-0.14607 0.0063,-0.0589 0.01732,0.285982 0.11973,0.552111 0.302087,0.78505 0.01826,0.02332 0.03135,0.04426 0.02908,0.04652 -0.0023,0.0023 -0.02974,-0.02285 -0.06106,-0.05579 z"
     id="path88"
     inkscape:connector-curvature="0" />
  <path
     style="fill:#916f6f;stroke-width:0.00669492"
     d="m 25.661272,21.020122 v -4.58267 h 7.367755 7.367754 v 4.58267 4.58267 h -7.367754 -7.367755 z m 5.724153,1.168938 c 0,-0.02506 -0.05152,-0.08814 -0.127203,-0.155753 -0.07312,-0.06532 -0.275001,-0.253164 -0.412556,-0.383863 -0.05924,-0.05629 -0.0652,-0.06444 -0.09056,-0.123856 -0.07877,-0.184538 -0.110792,-0.327321 -0.118651,-0.528964 -0.0047,-0.121716 -0.01204,-0.167053 -0.02381,-0.148005 -0.0094,0.01521 -0.0078,0.429451 0.0019,0.482817 0.03028,0.167113 0.103228,0.307468 0.236803,0.455636 0.04321,0.04793 0.186539,0.181097 0.243926,0.226631 0.02588,0.02053 0.282071,0.187456 0.288456,0.187944 9.21e-4,7e-5 0.0017,-0.0056 0.0017,-0.01259 z"
     id="path90"
     inkscape:connector-curvature="0" />
  <path
     style="fill:#916f6f;stroke-width:0.00669492"
     d="m 25.661272,21.020122 v -4.58267 h 7.367755 7.367754 v 4.58267 4.58267 h -7.367754 -7.367755 z m 5.724153,1.168938 c 0,-0.02506 -0.05152,-0.08814 -0.127203,-0.155753 -0.07312,-0.06532 -0.275001,-0.253164 -0.412556,-0.383863 -0.05924,-0.05629 -0.0652,-0.06444 -0.09056,-0.123856 -0.07877,-0.184538 -0.110792,-0.327321 -0.118651,-0.528964 -0.0047,-0.121716 -0.01204,-0.167053 -0.02381,-0.148005 -0.0094,0.01521 -0.0078,0.429451 0.0019,0.482817 0.03028,0.167113 0.103228,0.307468 0.236803,0.455636 0.04321,0.04793 0.186539,0.181097 0.243926,0.226631 0.02588,0.02053 0.282071,0.187456 0.288456,0.187944 9.21e-4,7e-5 0.0017,-0.0056 0.0017,-0.01259 z"
     id="path92"
     inkscape:connector-curvature="0" />
  <path
     style="fill:#916f6f;stroke-width:0.00669492"
     d="m 30.727535,21.497754 c -0.0347,-0.08078 -0.06284,-0.1704 -0.0827,-0.263395 -0.01459,-0.06832 -0.01747,-0.100875 -0.01922,-0.217584 l -0.0021,-0.137246 0.0052,0.117161 c 0.0052,0.11729 0.01656,0.200136 0.04057,0.294975 0.01486,0.05868 0.06295,0.20048 0.07761,0.228824 0.0055,0.01067 0.0089,0.02272 0.0076,0.02679 -0.0014,0.0041 -0.01347,-0.01822 -0.02692,-0.04952 z"
     id="path94"
     inkscape:connector-curvature="0" />
  <path
     style="fill:#916f6f;stroke-width:0.00669492"
     d="m 25.661272,21.020122 v -4.58267 h 7.367755 7.367754 v 4.58267 4.58267 h -7.367754 -7.367755 z m 5.724153,1.168938 c 0,-0.02506 -0.05152,-0.08814 -0.127203,-0.155753 -0.07312,-0.06532 -0.275001,-0.253164 -0.412556,-0.383863 -0.05924,-0.05629 -0.0652,-0.06444 -0.09056,-0.123856 -0.07877,-0.184538 -0.110792,-0.327321 -0.118651,-0.528964 -0.0047,-0.121716 -0.01204,-0.167053 -0.02381,-0.148005 -0.0094,0.01521 -0.0078,0.429451 0.0019,0.482817 0.03028,0.167113 0.103228,0.307468 0.236803,0.455636 0.04321,0.04793 0.186539,0.181097 0.243926,0.226631 0.02588,0.02053 0.282071,0.187456 0.288456,0.187944 9.21e-4,7e-5 0.0017,-0.0056 0.0017,-0.01259 z"
     id="path96"
     inkscape:connector-curvature="0" />
  <path
     style="fill:#916f6f;stroke-width:0.00669492"
     d="m 25.661272,21.020122 v -4.58267 h 7.367755 7.367754 v 4.58267 4.58267 h -7.367754 -7.367755 z"
     id="path98"
     inkscape:connector-curvature="0"
     sodipodi:nodetypes="ccccccccc" />
</svg>
